# hex prism, radius=0.0040 half-length=0.0145
v 0.004000 0.000000 -0.014500
v 0.002000 0.003464 -0.014500
v -0.002000 0.003464 -0.014500
v -0.004000 0.000000 -0.014500
v -0.002000 -0.003464 -0.014500
v 0.002000 -0.003464 -0.014500
v 0.004000 0.000000 0.014500
v 0.002000 0.003464 0.014500
v -0.002000 0.003464 0.014500
v -0.004000 0.000000 0.014500
v -0.002000 -0.003464 0.014500
v 0.002000 -0.003464 0.014500
v 0.000000 0.000000 -0.014500
v 0.000000 0.000000 0.014500
f 1 2 8
f 1 8 7
f 13 2 1
f 14 7 8
f 2 3 9
f 2 9 8
f 13 3 2
f 14 8 9
f 3 4 10
f 3 10 9
f 13 4 3
f 14 9 10
f 4 5 11
f 4 11 10
f 13 5 4
f 14 10 11
f 5 6 12
f 5 12 11
f 13 6 5
f 14 11 12
f 6 1 7
f 6 7 12
f 13 1 6
f 14 12 7
